<svg width="40" height="40" viewBox="0 0 40 40" fill="none" xmlns="http://www.w3.org/2000/svg">
<path d="M29.0586 15.1807C29.0678 15.3919 29.0679 15.5935 29.0679 15.8047C29.0771 22.2079 24.3726 29.5999 15.7694 29.5999C13.2319 29.5999 10.7408 28.8415 8.60156 27.4207C8.97199 27.4687 9.34242 27.4879 9.71285 27.4879C11.815 27.4879 13.8617 26.7583 15.5194 25.4047C13.519 25.3663 11.7595 24.0127 11.1483 22.0351C11.8521 22.1791 12.5744 22.1503 13.2597 21.9487C11.0834 21.5071 9.51838 19.5199 9.50912 17.2063C9.50912 17.1871 9.50912 17.1679 9.50912 17.1487C10.1574 17.5231 10.889 17.7343 11.6298 17.7535C9.5832 16.3327 8.94421 13.5007 10.1852 11.283C12.5652 14.3167 16.0657 16.1503 19.8256 16.3519C19.4459 14.6719 19.9645 12.9054 21.1777 11.715C23.0576 9.88144 26.0211 9.97744 27.7991 11.9262C28.8456 11.715 29.855 11.3118 30.7718 10.7454C30.4199 11.8686 29.6883 12.819 28.7159 13.4239C29.642 13.3087 30.5496 13.0494 31.4016 12.6654C30.7718 13.6447 29.9754 14.4895 29.0586 15.1807Z" fill="#FA58A6"/>
</svg>
