<svg width="31" height="32" viewBox="0 0 31 32" fill="none" xmlns="http://www.w3.org/2000/svg">
<path d="M1.10547 30.2859L20.6815 10.7098M10.1758 21.2156L10.513 20.9435C10.8402 20.6597 11.1365 20.3417 11.3968 19.9945C13.42 17.297 12.8734 13.47 10.1758 11.4468L9.83854 11.719C9.51139 12.0027 9.21504 12.3208 8.9547 12.6679C6.9315 15.3655 7.47819 19.1924 10.1758 21.2156ZM10.1758 21.2156L10.4479 21.5529C10.7317 21.88 11.0498 22.1764 11.3969 22.4367C14.0945 24.4599 17.9213 23.9132 19.9445 21.2156L19.6723 20.8784C19.3886 20.5512 19.0705 20.2548 18.7234 19.9945C16.0258 17.9713 12.1989 18.5181 10.1758 21.2156ZM15.0601 16.3312L15.3974 16.0591C15.7245 15.7753 16.0209 15.4573 16.2812 15.1101C18.3044 12.4126 17.7577 8.5856 15.0601 6.5624L14.7229 6.83455C14.3957 7.11832 14.0994 7.43636 13.8391 7.78347C11.8159 10.4811 12.3625 14.308 15.0601 16.3312ZM15.0601 16.3312L15.3323 16.6685C15.6161 16.9956 15.9341 17.292 16.2813 17.5523C18.9788 19.5755 22.8057 19.0288 24.8289 16.3312L24.5567 15.994C24.2729 15.6668 23.9549 15.3704 23.6077 15.1101C20.9102 13.0869 17.0833 13.6337 15.0601 16.3312ZM19.9445 11.4468L20.2817 11.1747C20.6089 10.8909 20.9052 10.5729 21.1656 10.2257C23.1888 7.52816 22.6421 3.7012 19.9445 1.678L19.6073 1.95015C19.2801 2.23391 18.9838 2.55195 18.7234 2.89907C16.7002 5.59665 17.2469 9.4236 19.9445 11.4468ZM19.9445 11.4468L20.2166 11.7841C20.5004 12.1112 20.8185 12.4076 21.1656 12.6679C23.8632 14.6911 27.6901 14.1444 29.7132 11.4468L29.4411 11.1096C29.1573 10.7824 28.8392 10.486 28.4921 10.2257C25.7945 8.20253 21.9676 8.74925 19.9445 11.4468ZM5.17577 26.2156L5.513 25.9435C5.84015 25.6597 6.1365 25.3417 6.39684 24.9945C8.42004 22.297 7.87335 18.47 5.17577 16.4468L4.83854 16.719C4.51138 17.0027 4.21504 17.3208 3.9547 17.6679C1.9315 20.3655 2.47819 24.1924 5.17577 26.2156ZM5.17577 26.2156L5.44793 26.5529C5.7317 26.88 6.04976 27.1764 6.39689 27.4367C9.09445 29.4599 12.9213 28.9132 14.9445 26.2156L14.6723 25.8784C14.3886 25.5512 14.0705 25.2548 13.7234 24.9945C11.0258 22.9713 7.19892 23.5181 5.17577 26.2156ZM29.8925 1.49984C30.3694 4.83797 28.05 7.93057 24.7119 8.40743C24.2824 8.46879 23.8479 8.48413 23.4159 8.45345L22.985 8.40736C22.5081 5.0693 24.8276 1.9767 28.1657 1.49984C28.7384 1.41802 29.3198 1.41802 29.8925 1.49984Z" stroke="#79043C" stroke-width="1.66667" stroke-linecap="round"/>
</svg>
